<svg xmlns="http://www.w3.org/2000/svg" viewBox="0 0 240 320" fill="none">
  <!-- mint petno зад бутилка -->
  <path d="M 30 180 Q 20 120 70 95 Q 130 80 165 110 Q 190 150 170 200 Q 130 250 75 230 Q 30 215 30 180 Z"
        fill="oklch(0.83 0.08 168)" opacity="0.4"/>
  <!-- blush petno над -->
  <circle cx="170" cy="80" r="28" fill="oklch(0.88 0.06 25)" opacity="0.55"/>

  <!-- бутилка контур -->
  <path d="M 100 60 L 140 60 L 140 90 Q 165 105 165 135 L 165 270 Q 165 290 145 290 L 95 290 Q 75 290 75 270 L 75 135 Q 75 105 100 90 Z"
        stroke="currentColor" stroke-width="2" stroke-linejoin="round" fill="oklch(0.99 0.005 75)" fill-opacity="0.7"/>
  <!-- запушалка -->
  <rect x="105" y="40" width="30" height="22" rx="3" stroke="currentColor" stroke-width="2" fill="none"/>
  <!-- етикет -->
  <line x1="85" y1="180" x2="155" y2="180" stroke="currentColor" stroke-width="1.2" opacity="0.7"/>
  <line x1="85" y1="190" x2="135" y2="190" stroke="currentColor" stroke-width="1" opacity="0.5"/>
  <line x1="85" y1="200" x2="145" y2="200" stroke="currentColor" stroke-width="1" opacity="0.5"/>

  <!-- decorative dot pair -->
  <circle cx="50" cy="120" r="3" fill="currentColor" opacity="0.5"/>
  <circle cx="195" cy="220" r="2.5" fill="currentColor" opacity="0.5"/>
</svg>
